# xmcd
#
# Track frame offsets: 
#        150
#        22172
#        35881
#        53652
#        73484
#        95886
#        120596
#        137501
#        148982
#        163676
#        178470
#        198103
#        223684
#
# Disc length: 3192 seconds
#
# Revision: 0
# Processed by: cddbd v1.5.2PL0 Copyright (c) Steve Scherf et al.
# Submitted via: ExactAudioCopyFreeDBPlugin 1.0
#
DISCID=d60c760d
DTITLE=Šulnys - Ant Sartų
DYEAR=2000
DGENRE=Country
TTITLE0=Šulnys
TTITLE1=Baltan vakan
TTITLE2=Valsas sau
TTITLE3=Upė Švintoji
TTITLE4=Giesmė gimtajam miesteliui
TTITLE5=Šviesa lunguos
TTITLE6=Vėlinių valsas
TTITLE7=Žvejybinė
TTITLE8=Girtas valsas
TTITLE9=Bliuzpolkė
TTITLE10=Vasarėla
TTITLE11=Gimtines ūžalai
TTITLE12=Unt Sartų
EXTD=
EXTT0=
EXTT1=
EXTT2=
EXTT3=
EXTT4=
EXTT5=
EXTT6=
EXTT7=
EXTT8=
EXTT9=
EXTT10=
EXTT11=
EXTT12=
PLAYORDER=
